<svg xmlns="http://www.w3.org/2000/svg" viewBox="0 0 100 100" width="512" height="512">
  <defs>
    <linearGradient id="ic-6335295c6114" gradientUnits="userSpaceOnUse" x1="25.17" y1="21.00" x2="31.38" y2="21.00"><stop offset="0.0000" stop-color="rgb(194, 71, 40)" /><stop offset="0.3210" stop-color="rgb(194, 71, 40)" /><stop offset="0.6781" stop-color="rgb(194, 71, 40)" /><stop offset="1.0000" stop-color="rgb(194, 71, 40)" /></linearGradient>
    <linearGradient id="ic-0ee482fbcdf9" gradientUnits="userSpaceOnUse" x1="21.00" y1="26.38" x2="21.00" y2="32.76"><stop offset="0.0000" stop-color="rgb(194, 71, 40)" /><stop offset="0.1226" stop-color="rgb(194, 71, 40)" /><stop offset="0.8627" stop-color="rgb(198, 47, 168)" /><stop offset="1.0000" stop-color="rgb(198, 47, 168)" /></linearGradient>
    <linearGradient id="ic-b24735843470" gradientUnits="userSpaceOnUse" x1="39.62" y1="21.00" x2="45.83" y2="21.00"><stop offset="0.0000" stop-color="rgb(194, 71, 40)" /><stop offset="0.3224" stop-color="rgb(194, 71, 40)" /><stop offset="0.6787" stop-color="rgb(194, 71, 40)" /><stop offset="1.0000" stop-color="rgb(194, 71, 40)" /></linearGradient>
    <linearGradient id="ic-ed03ba5a98c3" gradientUnits="userSpaceOnUse" x1="35.50" y1="25.49" x2="35.50" y2="31.70"><stop offset="0.0000" stop-color="rgb(194, 71, 40)" /><stop offset="0.2628" stop-color="rgb(194, 71, 40)" /><stop offset="0.7265" stop-color="rgb(47, 198, 153)" /><stop offset="1.0000" stop-color="rgb(47, 198, 153)" /></linearGradient>
    <linearGradient id="ic-37af154d4e46" gradientUnits="userSpaceOnUse" x1="54.17" y1="21.00" x2="60.38" y2="21.00"><stop offset="0.0000" stop-color="rgb(194, 71, 40)" /><stop offset="0.3213" stop-color="rgb(194, 71, 40)" /><stop offset="0.6776" stop-color="rgb(194, 71, 40)" /><stop offset="1.0000" stop-color="rgb(194, 71, 40)" /></linearGradient>
    <linearGradient id="ic-43f7940206e9" gradientUnits="userSpaceOnUse" x1="50.00" y1="25.17" x2="50.00" y2="31.37"><stop offset="0.0000" stop-color="rgb(194, 71, 40)" /><stop offset="0.3224" stop-color="rgb(194, 71, 40)" /><stop offset="0.6768" stop-color="rgb(198, 47, 168)" /><stop offset="1.0000" stop-color="rgb(198, 47, 168)" /></linearGradient>
    <linearGradient id="ic-164efa2b566e" gradientUnits="userSpaceOnUse" x1="68.62" y1="21.00" x2="74.83" y2="21.00"><stop offset="0.0000" stop-color="rgb(194, 71, 40)" /><stop offset="0.3219" stop-color="rgb(194, 71, 40)" /><stop offset="0.6790" stop-color="rgb(194, 71, 40)" /><stop offset="1.0000" stop-color="rgb(194, 71, 40)" /></linearGradient>
    <linearGradient id="ic-f2a261baf362" gradientUnits="userSpaceOnUse" x1="64.50" y1="25.49" x2="64.50" y2="31.70"><stop offset="0.0000" stop-color="rgb(194, 71, 40)" /><stop offset="0.2628" stop-color="rgb(194, 71, 40)" /><stop offset="0.7265" stop-color="rgb(47, 198, 153)" /><stop offset="1.0000" stop-color="rgb(47, 198, 153)" /></linearGradient>
    <linearGradient id="ic-f8f3a7332088" gradientUnits="userSpaceOnUse" x1="79.00" y1="26.38" x2="79.00" y2="32.76"><stop offset="0.0000" stop-color="rgb(194, 71, 40)" /><stop offset="0.1226" stop-color="rgb(194, 71, 40)" /><stop offset="0.8627" stop-color="rgb(198, 47, 168)" /><stop offset="1.0000" stop-color="rgb(198, 47, 168)" /></linearGradient>
    <linearGradient id="ic-161b157e7750" gradientUnits="userSpaceOnUse" x1="24.00" y1="35.50" x2="30.58" y2="35.50"><stop offset="0.0000" stop-color="rgb(198, 47, 168)" /><stop offset="0.0939" stop-color="rgb(198, 47, 168)" /><stop offset="0.9122" stop-color="rgb(47, 198, 153)" /><stop offset="1.0000" stop-color="rgb(47, 198, 153)" /></linearGradient>
    <linearGradient id="ic-39fbb44f9564" gradientUnits="userSpaceOnUse" x1="39.29" y1="35.50" x2="45.50" y2="35.50"><stop offset="0.0000" stop-color="rgb(47, 198, 153)" /><stop offset="0.2745" stop-color="rgb(47, 198, 153)" /><stop offset="0.7364" stop-color="rgb(198, 47, 168)" /><stop offset="1.0000" stop-color="rgb(198, 47, 168)" /></linearGradient>
    <linearGradient id="ic-7e8015ea5c07" gradientUnits="userSpaceOnUse" x1="54.50" y1="35.50" x2="60.71" y2="35.50"><stop offset="0.0000" stop-color="rgb(198, 47, 168)" /><stop offset="0.2636" stop-color="rgb(198, 47, 168)" /><stop offset="0.7255" stop-color="rgb(47, 198, 153)" /><stop offset="1.0000" stop-color="rgb(47, 198, 153)" /></linearGradient>
    <linearGradient id="ic-9b6b1d7b08ec" gradientUnits="userSpaceOnUse" x1="50.00" y1="40.53" x2="50.00" y2="46.80"><stop offset="0.0000" stop-color="rgb(198, 47, 168)" /><stop offset="0.1760" stop-color="rgb(198, 47, 168)" /><stop offset="0.8066" stop-color="rgb(47, 198, 153)" /><stop offset="1.0000" stop-color="rgb(47, 198, 153)" /></linearGradient>
    <linearGradient id="ic-b1403c6112d6" gradientUnits="userSpaceOnUse" x1="69.42" y1="35.50" x2="76.00" y2="35.50"><stop offset="0.0000" stop-color="rgb(47, 198, 153)" /><stop offset="0.0878" stop-color="rgb(47, 198, 153)" /><stop offset="0.9061" stop-color="rgb(198, 47, 168)" /><stop offset="1.0000" stop-color="rgb(198, 47, 168)" /></linearGradient>
    <linearGradient id="ic-01bf75a31220" gradientUnits="userSpaceOnUse" x1="35.50" y1="52.41" x2="35.50" y2="59.00"><stop offset="0.0000" stop-color="rgb(198, 47, 168)" /><stop offset="0.0917" stop-color="rgb(198, 47, 168)" /><stop offset="0.9165" stop-color="rgb(194, 71, 40)" /><stop offset="1.0000" stop-color="rgb(194, 71, 40)" /></linearGradient>
    <linearGradient id="ic-505b2b20da17" gradientUnits="userSpaceOnUse" x1="64.50" y1="52.41" x2="64.50" y2="59.00"><stop offset="0.0000" stop-color="rgb(198, 47, 168)" /><stop offset="0.0917" stop-color="rgb(198, 47, 168)" /><stop offset="0.9165" stop-color="rgb(194, 71, 40)" /><stop offset="1.0000" stop-color="rgb(194, 71, 40)" /></linearGradient>
    <linearGradient id="ic-c845cb1692cd" gradientUnits="userSpaceOnUse" x1="24.87" y1="64.50" x2="31.09" y2="64.50"><stop offset="0.0000" stop-color="rgb(198, 47, 168)" /><stop offset="0.2712" stop-color="rgb(198, 47, 168)" /><stop offset="0.7371" stop-color="rgb(194, 71, 40)" /><stop offset="1.0000" stop-color="rgb(194, 71, 40)" /></linearGradient>
    <linearGradient id="ic-3b3e288dadb3" gradientUnits="userSpaceOnUse" x1="21.00" y1="68.88" x2="21.00" y2="75.17"><stop offset="0.0000" stop-color="rgb(198, 47, 168)" /><stop offset="0.1866" stop-color="rgb(198, 47, 168)" /><stop offset="0.8079" stop-color="rgb(194, 71, 40)" /><stop offset="1.0000" stop-color="rgb(194, 71, 40)" /></linearGradient>
    <linearGradient id="ic-cd1764be5e72" gradientUnits="userSpaceOnUse" x1="41.03" y1="64.50" x2="47.67" y2="64.50"><stop offset="0.0000" stop-color="rgb(194, 71, 40)" /><stop offset="0.0778" stop-color="rgb(194, 71, 40)" /><stop offset="0.9150" stop-color="rgb(47, 198, 153)" /><stop offset="1.0000" stop-color="rgb(47, 198, 153)" /></linearGradient>
    <linearGradient id="ic-0e2002e78f98" gradientUnits="userSpaceOnUse" x1="35.50" y1="69.16" x2="35.50" y2="75.39"><stop offset="0.0000" stop-color="rgb(194, 71, 40)" /><stop offset="0.2232" stop-color="rgb(194, 71, 40)" /><stop offset="0.7635" stop-color="rgb(47, 198, 153)" /><stop offset="1.0000" stop-color="rgb(47, 198, 153)" /></linearGradient>
    <linearGradient id="ic-0fbeaf9f513e" gradientUnits="userSpaceOnUse" x1="52.33" y1="64.50" x2="58.97" y2="64.50"><stop offset="0.0000" stop-color="rgb(47, 198, 153)" /><stop offset="0.0850" stop-color="rgb(47, 198, 153)" /><stop offset="0.9222" stop-color="rgb(194, 71, 40)" /><stop offset="1.0000" stop-color="rgb(194, 71, 40)" /></linearGradient>
    <linearGradient id="ic-43e8da64555e" gradientUnits="userSpaceOnUse" x1="68.91" y1="64.50" x2="75.13" y2="64.50"><stop offset="0.0000" stop-color="rgb(194, 71, 40)" /><stop offset="0.2629" stop-color="rgb(194, 71, 40)" /><stop offset="0.7288" stop-color="rgb(198, 47, 168)" /><stop offset="1.0000" stop-color="rgb(198, 47, 168)" /></linearGradient>
    <linearGradient id="ic-57af7c37f9e2" gradientUnits="userSpaceOnUse" x1="64.50" y1="69.16" x2="64.50" y2="75.39"><stop offset="0.0000" stop-color="rgb(194, 71, 40)" /><stop offset="0.2232" stop-color="rgb(194, 71, 40)" /><stop offset="0.7635" stop-color="rgb(47, 198, 153)" /><stop offset="1.0000" stop-color="rgb(47, 198, 153)" /></linearGradient>
    <linearGradient id="ic-10fb41539b75" gradientUnits="userSpaceOnUse" x1="79.00" y1="68.88" x2="79.00" y2="75.17"><stop offset="0.0000" stop-color="rgb(198, 47, 168)" /><stop offset="0.1866" stop-color="rgb(198, 47, 168)" /><stop offset="0.8079" stop-color="rgb(194, 71, 40)" /><stop offset="1.0000" stop-color="rgb(194, 71, 40)" /></linearGradient>
    <linearGradient id="ic-b2b4c5e820f9" gradientUnits="userSpaceOnUse" x1="25.05" y1="79.00" x2="31.40" y2="79.00"><stop offset="0.0000" stop-color="rgb(194, 71, 40)" /><stop offset="0.1558" stop-color="rgb(194, 71, 40)" /><stop offset="0.8446" stop-color="rgb(47, 198, 153)" /><stop offset="1.0000" stop-color="rgb(47, 198, 153)" /></linearGradient>
    <linearGradient id="ic-10b2f11bfdf6" gradientUnits="userSpaceOnUse" x1="39.21" y1="79.00" x2="45.46" y2="79.00"><stop offset="0.0000" stop-color="rgb(47, 198, 153)" /><stop offset="0.2207" stop-color="rgb(47, 198, 153)" /><stop offset="0.7892" stop-color="rgb(47, 198, 153)" /><stop offset="1.0000" stop-color="rgb(47, 198, 153)" /></linearGradient>
    <linearGradient id="ic-acfe324b3281" gradientUnits="userSpaceOnUse" x1="54.54" y1="79.00" x2="60.79" y2="79.00"><stop offset="0.0000" stop-color="rgb(47, 198, 153)" /><stop offset="0.2108" stop-color="rgb(47, 198, 153)" /><stop offset="0.7793" stop-color="rgb(47, 198, 153)" /><stop offset="1.0000" stop-color="rgb(47, 198, 153)" /></linearGradient>
    <linearGradient id="ic-e84f6ac517be" gradientUnits="userSpaceOnUse" x1="68.60" y1="79.00" x2="74.95" y2="79.00"><stop offset="0.0000" stop-color="rgb(47, 198, 153)" /><stop offset="0.1554" stop-color="rgb(47, 198, 153)" /><stop offset="0.8442" stop-color="rgb(194, 71, 40)" /><stop offset="1.0000" stop-color="rgb(194, 71, 40)" /></linearGradient>
  </defs>
  <path d="M25.17 25.54A6.16 6.16 0 0 0 25.17 16.46A4.60 4.60 0 0 0 31.38 16.48A6.12 6.12 0 0 0 31.38 25.52A4.60 4.60 0 0 0 25.17 25.54Z" fill="url(#ic-6335295c6114)" fill-opacity="0.968" />
  <path d="M18.00 26.38A6.16 6.16 0 0 0 24.00 26.38A3.91 3.91 0 0 0 23.36 32.76A3.62 3.62 0 0 0 18.64 32.76A3.91 3.91 0 0 0 18.00 26.38Z" fill="url(#ic-0ee482fbcdf9)" fill-opacity="0.272" />
  <path d="M39.62 25.53A6.12 6.12 0 0 0 39.62 16.47A4.60 4.60 0 0 0 45.83 16.46A6.17 6.17 0 0 0 45.83 25.54A4.60 4.60 0 0 0 39.62 25.53Z" fill="url(#ic-b24735843470)" fill-opacity="0.969" />
  <path d="M31.34 25.49A6.12 6.12 0 0 0 39.66 25.49A4.36 4.36 0 0 0 39.47 31.70A5.50 5.50 0 0 0 31.53 31.70A4.36 4.36 0 0 0 31.34 25.49Z" fill="url(#ic-ed03ba5a98c3)" fill-opacity="0.783" />
  <path d="M54.17 25.54A6.17 6.17 0 0 0 54.17 16.46A4.60 4.60 0 0 0 60.38 16.47A6.12 6.12 0 0 0 60.38 25.53A4.60 4.60 0 0 0 54.17 25.54Z" fill="url(#ic-37af154d4e46)" fill-opacity="0.969" />
  <path d="M45.45 25.17A6.17 6.17 0 0 0 54.55 25.17A4.60 4.60 0 0 0 54.54 31.37A6.13 6.13 0 0 0 45.46 31.37A4.60 4.60 0 0 0 45.45 25.17Z" fill="url(#ic-43f7940206e9)" fill-opacity="0.972" />
  <path d="M68.62 25.52A6.12 6.12 0 0 0 68.62 16.48A4.60 4.60 0 0 0 74.83 16.46A6.16 6.16 0 0 0 74.83 25.54A4.60 4.60 0 0 0 68.62 25.52Z" fill="url(#ic-164efa2b566e)" fill-opacity="0.968" />
  <path d="M60.34 25.49A6.12 6.12 0 0 0 68.66 25.49A4.36 4.36 0 0 0 68.47 31.70A5.50 5.50 0 0 0 60.53 31.70A4.36 4.36 0 0 0 60.34 25.49Z" fill="url(#ic-f2a261baf362)" fill-opacity="0.783" />
  <path d="M76.00 26.38A6.16 6.16 0 0 0 82.00 26.38A3.91 3.91 0 0 0 81.36 32.76A3.62 3.62 0 0 0 76.64 32.76A3.91 3.91 0 0 0 76.00 26.38Z" fill="url(#ic-f8f3a7332088)" fill-opacity="0.272" />
  <path d="M24.00 37.52A3.62 3.62 0 0 0 24.00 33.48A3.82 3.82 0 0 0 30.58 33.05A5.50 5.50 0 0 0 30.58 37.95A3.82 3.82 0 0 0 24.00 37.52Z" fill="url(#ic-161b157e7750)" fill-opacity="0.087" />
  <path d="M39.29 39.48A5.50 5.50 0 0 0 39.29 31.52A4.36 4.36 0 0 0 45.50 31.33A6.13 6.13 0 0 0 45.50 39.67A4.36 4.36 0 0 0 39.29 39.48Z" fill="url(#ic-39fbb44f9564)" fill-opacity="0.787" />
  <path d="M54.50 39.67A6.13 6.13 0 0 0 54.50 31.33A4.36 4.36 0 0 0 60.71 31.52A5.50 5.50 0 0 0 60.71 39.48A4.36 4.36 0 0 0 54.50 39.67Z" fill="url(#ic-7e8015ea5c07)" fill-opacity="0.787" />
  <path d="M46.49 40.53A6.13 6.13 0 0 0 53.51 40.53A4.05 4.05 0 0 0 53.04 46.80A4.42 4.42 0 0 0 46.96 46.80A4.05 4.05 0 0 0 46.49 40.53Z" fill="url(#ic-9b6b1d7b08ec)" fill-opacity="0.486" />
  <path d="M69.42 37.95A5.50 5.50 0 0 0 69.42 33.05A3.82 3.82 0 0 0 76.00 33.48A3.62 3.62 0 0 0 76.00 37.52A3.82 3.82 0 0 0 69.42 37.95Z" fill="url(#ic-b1403c6112d6)" fill-opacity="0.087" />
  <path d="M33.69 52.41A3.02 3.02 0 0 0 37.31 52.41A3.85 3.85 0 0 0 38.02 59.00A6.05 6.05 0 0 0 32.98 59.00A3.85 3.85 0 0 0 33.69 52.41Z" fill="url(#ic-01bf75a31220)" fill-opacity="0.074" />
  <path d="M62.69 52.41A3.02 3.02 0 0 0 66.31 52.41A3.85 3.85 0 0 0 67.02 59.00A6.05 6.05 0 0 0 61.98 59.00A3.85 3.85 0 0 0 62.69 52.41Z" fill="url(#ic-505b2b20da17)" fill-opacity="0.074" />
  <path d="M24.87 68.49A5.56 5.56 0 0 0 24.87 60.51A4.36 4.36 0 0 0 31.09 60.37A6.05 6.05 0 0 0 31.09 68.63A4.36 4.36 0 0 0 24.87 68.49Z" fill="url(#ic-c845cb1692cd)" fill-opacity="0.779" />
  <path d="M17.58 68.88A5.56 5.56 0 0 0 24.42 68.88A4.06 4.06 0 0 0 24.27 75.17A5.04 5.04 0 0 0 17.73 75.17A4.06 4.06 0 0 0 17.58 68.88Z" fill="url(#ic-3b3e288dadb3)" fill-opacity="0.498" />
  <path d="M41.03 66.94A6.05 6.05 0 0 0 41.03 62.06A3.86 3.86 0 0 0 47.67 62.78A2.90 2.90 0 0 0 47.67 66.22A3.86 3.86 0 0 0 41.03 66.94Z" fill="url(#ic-cd1764be5e72)" fill-opacity="0.040" />
  <path d="M31.64 69.16A6.05 6.05 0 0 0 39.36 69.16A4.21 4.21 0 0 0 39.08 75.39A5.09 5.09 0 0 0 31.92 75.39A4.21 4.21 0 0 0 31.64 69.16Z" fill="url(#ic-0e2002e78f98)" fill-opacity="0.648" />
  <path d="M52.33 66.22A2.90 2.90 0 0 0 52.33 62.78A3.86 3.86 0 0 0 58.97 62.06A6.05 6.05 0 0 0 58.97 66.94A3.86 3.86 0 0 0 52.33 66.22Z" fill="url(#ic-0fbeaf9f513e)" fill-opacity="0.040" />
  <path d="M68.91 68.63A6.05 6.05 0 0 0 68.91 60.37A4.36 4.36 0 0 0 75.13 60.51A5.56 5.56 0 0 0 75.13 68.49A4.36 4.36 0 0 0 68.91 68.63Z" fill="url(#ic-43e8da64555e)" fill-opacity="0.779" />
  <path d="M60.64 69.16A6.05 6.05 0 0 0 68.36 69.16A4.21 4.21 0 0 0 68.08 75.39A5.09 5.09 0 0 0 60.92 75.39A4.21 4.21 0 0 0 60.64 69.16Z" fill="url(#ic-57af7c37f9e2)" fill-opacity="0.648" />
  <path d="M75.58 68.88A5.56 5.56 0 0 0 82.42 68.88A4.06 4.06 0 0 0 82.27 75.17A5.04 5.04 0 0 0 75.73 75.17A4.06 4.06 0 0 0 75.58 68.88Z" fill="url(#ic-10fb41539b75)" fill-opacity="0.498" />
  <path d="M25.05 82.00A5.04 5.04 0 0 0 25.05 76.00A3.95 3.95 0 0 0 31.40 75.99A5.09 5.09 0 0 0 31.40 82.01A3.95 3.95 0 0 0 25.05 82.00Z" fill="url(#ic-b2b4c5e820f9)" fill-opacity="0.368" />
  <path d="M39.21 82.48A5.09 5.09 0 0 0 39.21 75.52A4.15 4.15 0 0 0 45.46 75.30A5.86 5.86 0 0 0 45.46 82.70A4.15 4.15 0 0 0 39.21 82.48Z" fill="url(#ic-10b2f11bfdf6)" fill-opacity="0.597" />
  <path d="M54.54 82.70A5.86 5.86 0 0 0 54.54 75.30A4.15 4.15 0 0 0 60.79 75.52A5.09 5.09 0 0 0 60.79 82.48A4.15 4.15 0 0 0 54.54 82.70Z" fill="url(#ic-acfe324b3281)" fill-opacity="0.597" />
  <path d="M68.60 82.01A5.09 5.09 0 0 0 68.60 75.99A3.95 3.95 0 0 0 74.95 76.00A5.04 5.04 0 0 0 74.95 82.00A3.95 3.95 0 0 0 68.60 82.01Z" fill="url(#ic-e84f6ac517be)" fill-opacity="0.368" />
  <circle cx="21.00" cy="21.00" r="6.16" fill="hsl(12, 66%, 46%)" opacity="0.990" />
  <circle cx="35.50" cy="21.00" r="6.12" fill="hsl(12, 66%, 46%)" opacity="0.978" />
  <circle cx="50.00" cy="21.00" r="6.17" fill="hsl(12, 66%, 46%)" opacity="0.991" />
  <circle cx="64.50" cy="21.00" r="6.12" fill="hsl(12, 66%, 46%)" opacity="0.978" />
  <circle cx="79.00" cy="21.00" r="6.16" fill="hsl(12, 66%, 46%)" opacity="0.990" />
  <circle cx="21.00" cy="35.50" r="3.62" fill="hsl(312, 62%, 48%)" opacity="0.282" />
  <circle cx="35.50" cy="35.50" r="5.50" fill="hsl(162, 62%, 48%)" opacity="0.805" />
  <circle cx="50.00" cy="35.50" r="6.13" fill="hsl(312, 62%, 48%)" opacity="0.981" />
  <circle cx="64.50" cy="35.50" r="5.50" fill="hsl(162, 62%, 48%)" opacity="0.805" />
  <circle cx="79.00" cy="35.50" r="3.62" fill="hsl(312, 62%, 48%)" opacity="0.282" />
  <circle cx="35.50" cy="50.00" r="3.02" fill="hsl(312, 62%, 48%)" opacity="0.116" />
  <circle cx="50.00" cy="50.00" r="4.42" fill="hsl(162, 62%, 48%)" opacity="0.505" />
  <circle cx="64.50" cy="50.00" r="3.02" fill="hsl(312, 62%, 48%)" opacity="0.116" />
  <circle cx="21.00" cy="64.50" r="5.56" fill="hsl(312, 62%, 48%)" opacity="0.822" />
  <circle cx="35.50" cy="64.50" r="6.05" fill="hsl(12, 66%, 46%)" opacity="0.958" />
  <circle cx="50.00" cy="64.50" r="2.90" fill="hsl(162, 62%, 48%)" opacity="0.083" />
  <circle cx="64.50" cy="64.50" r="6.05" fill="hsl(12, 66%, 46%)" opacity="0.958" />
  <circle cx="79.00" cy="64.50" r="5.56" fill="hsl(312, 62%, 48%)" opacity="0.822" />
  <circle cx="21.00" cy="79.00" r="5.04" fill="hsl(12, 66%, 46%)" opacity="0.677" />
  <circle cx="35.50" cy="79.00" r="5.09" fill="hsl(162, 62%, 48%)" opacity="0.691" />
  <circle cx="50.00" cy="79.00" r="5.86" fill="hsl(162, 62%, 48%)" opacity="0.906" />
  <circle cx="64.50" cy="79.00" r="5.09" fill="hsl(162, 62%, 48%)" opacity="0.691" />
  <circle cx="79.00" cy="79.00" r="5.04" fill="hsl(12, 66%, 46%)" opacity="0.677" />
</svg>
