<svg xmlns="http://www.w3.org/2000/svg" viewBox="0 0 100 100" width="512" height="512">
  <defs>
    <linearGradient id="ic-a0d4b3ca7d9b" gradientUnits="userSpaceOnUse" x1="25.18" y1="21.00" x2="31.39" y2="21.00"><stop offset="0.0000" stop-color="rgb(194, 71, 40)" /><stop offset="0.3207" stop-color="rgb(194, 71, 40)" /><stop offset="0.6780" stop-color="rgb(194, 71, 40)" /><stop offset="1.0000" stop-color="rgb(194, 71, 40)" /></linearGradient>
    <linearGradient id="ic-8e517d3c1a9e" gradientUnits="userSpaceOnUse" x1="21.00" y1="26.41" x2="21.00" y2="32.80"><stop offset="0.0000" stop-color="rgb(194, 71, 40)" /><stop offset="0.1190" stop-color="rgb(194, 71, 40)" /><stop offset="0.8666" stop-color="rgb(198, 47, 167)" /><stop offset="1.0000" stop-color="rgb(198, 47, 167)" /></linearGradient>
    <linearGradient id="ic-624d00533d33" gradientUnits="userSpaceOnUse" x1="39.62" y1="21.00" x2="45.83" y2="21.00"><stop offset="0.0000" stop-color="rgb(194, 71, 40)" /><stop offset="0.3208" stop-color="rgb(194, 71, 40)" /><stop offset="0.6802" stop-color="rgb(194, 71, 40)" /><stop offset="1.0000" stop-color="rgb(194, 71, 40)" /></linearGradient>
    <linearGradient id="ic-593b51b9ebe2" gradientUnits="userSpaceOnUse" x1="35.50" y1="25.50" x2="35.50" y2="31.71"><stop offset="0.0000" stop-color="rgb(194, 71, 40)" /><stop offset="0.2592" stop-color="rgb(194, 71, 40)" /><stop offset="0.7299" stop-color="rgb(47, 198, 153)" /><stop offset="1.0000" stop-color="rgb(47, 198, 153)" /></linearGradient>
    <linearGradient id="ic-6dca39dd6ceb" gradientUnits="userSpaceOnUse" x1="54.17" y1="21.00" x2="60.38" y2="21.00"><stop offset="0.0000" stop-color="rgb(194, 71, 40)" /><stop offset="0.3198" stop-color="rgb(194, 71, 40)" /><stop offset="0.6792" stop-color="rgb(194, 71, 40)" /><stop offset="1.0000" stop-color="rgb(194, 71, 40)" /></linearGradient>
    <linearGradient id="ic-10915863e970" gradientUnits="userSpaceOnUse" x1="50.00" y1="25.16" x2="50.00" y2="31.36"><stop offset="0.0000" stop-color="rgb(194, 71, 40)" /><stop offset="0.3222" stop-color="rgb(194, 71, 40)" /><stop offset="0.6773" stop-color="rgb(198, 47, 167)" /><stop offset="1.0000" stop-color="rgb(198, 47, 167)" /></linearGradient>
    <linearGradient id="ic-5ff6f328ede4" gradientUnits="userSpaceOnUse" x1="68.61" y1="21.00" x2="74.82" y2="21.00"><stop offset="0.0000" stop-color="rgb(194, 71, 40)" /><stop offset="0.3220" stop-color="rgb(194, 71, 40)" /><stop offset="0.6793" stop-color="rgb(194, 71, 40)" /><stop offset="1.0000" stop-color="rgb(194, 71, 40)" /></linearGradient>
    <linearGradient id="ic-d403bdc2c251" gradientUnits="userSpaceOnUse" x1="64.50" y1="25.50" x2="64.50" y2="31.71"><stop offset="0.0000" stop-color="rgb(194, 71, 40)" /><stop offset="0.2592" stop-color="rgb(194, 71, 40)" /><stop offset="0.7299" stop-color="rgb(47, 198, 153)" /><stop offset="1.0000" stop-color="rgb(47, 198, 153)" /></linearGradient>
    <linearGradient id="ic-4771c97e50b9" gradientUnits="userSpaceOnUse" x1="79.00" y1="26.41" x2="79.00" y2="32.80"><stop offset="0.0000" stop-color="rgb(194, 71, 40)" /><stop offset="0.1190" stop-color="rgb(194, 71, 40)" /><stop offset="0.8666" stop-color="rgb(198, 47, 167)" /><stop offset="1.0000" stop-color="rgb(198, 47, 167)" /></linearGradient>
    <linearGradient id="ic-e14faa82ee1c" gradientUnits="userSpaceOnUse" x1="23.97" y1="35.50" x2="30.58" y2="35.50"><stop offset="0.0000" stop-color="rgb(198, 47, 167)" /><stop offset="0.0883" stop-color="rgb(198, 47, 167)" /><stop offset="0.9173" stop-color="rgb(47, 198, 153)" /><stop offset="1.0000" stop-color="rgb(47, 198, 153)" /></linearGradient>
    <linearGradient id="ic-4dc50d37ece3" gradientUnits="userSpaceOnUse" x1="39.27" y1="35.50" x2="45.48" y2="35.50"><stop offset="0.0000" stop-color="rgb(47, 198, 153)" /><stop offset="0.2725" stop-color="rgb(47, 198, 153)" /><stop offset="0.7390" stop-color="rgb(198, 47, 167)" /><stop offset="1.0000" stop-color="rgb(198, 47, 167)" /></linearGradient>
    <linearGradient id="ic-11e32490f88a" gradientUnits="userSpaceOnUse" x1="54.52" y1="35.50" x2="60.73" y2="35.50"><stop offset="0.0000" stop-color="rgb(198, 47, 167)" /><stop offset="0.2610" stop-color="rgb(198, 47, 167)" /><stop offset="0.7275" stop-color="rgb(47, 198, 153)" /><stop offset="1.0000" stop-color="rgb(47, 198, 153)" /></linearGradient>
    <linearGradient id="ic-33ee50785ab2" gradientUnits="userSpaceOnUse" x1="50.00" y1="40.52" x2="50.00" y2="46.78"><stop offset="0.0000" stop-color="rgb(198, 47, 167)" /><stop offset="0.1791" stop-color="rgb(198, 47, 167)" /><stop offset="0.8034" stop-color="rgb(47, 198, 153)" /><stop offset="1.0000" stop-color="rgb(47, 198, 153)" /></linearGradient>
    <linearGradient id="ic-02017dfee3f7" gradientUnits="userSpaceOnUse" x1="69.42" y1="35.50" x2="76.03" y2="35.50"><stop offset="0.0000" stop-color="rgb(47, 198, 153)" /><stop offset="0.0827" stop-color="rgb(47, 198, 153)" /><stop offset="0.9117" stop-color="rgb(198, 47, 167)" /><stop offset="1.0000" stop-color="rgb(198, 47, 167)" /></linearGradient>
    <linearGradient id="ic-93ecfbacafc7" gradientUnits="userSpaceOnUse" x1="35.50" y1="52.45" x2="35.50" y2="59.03"><stop offset="0.0000" stop-color="rgb(198, 47, 167)" /><stop offset="0.0933" stop-color="rgb(198, 47, 167)" /><stop offset="0.9152" stop-color="rgb(194, 71, 40)" /><stop offset="1.0000" stop-color="rgb(194, 71, 40)" /></linearGradient>
    <linearGradient id="ic-08c84336544c" gradientUnits="userSpaceOnUse" x1="64.50" y1="52.45" x2="64.50" y2="59.03"><stop offset="0.0000" stop-color="rgb(198, 47, 167)" /><stop offset="0.0933" stop-color="rgb(198, 47, 167)" /><stop offset="0.9152" stop-color="rgb(194, 71, 40)" /><stop offset="1.0000" stop-color="rgb(194, 71, 40)" /></linearGradient>
    <linearGradient id="ic-2e99af6251fa" gradientUnits="userSpaceOnUse" x1="24.87" y1="64.50" x2="31.08" y2="64.50"><stop offset="0.0000" stop-color="rgb(198, 47, 167)" /><stop offset="0.2681" stop-color="rgb(198, 47, 167)" /><stop offset="0.7403" stop-color="rgb(194, 71, 40)" /><stop offset="1.0000" stop-color="rgb(194, 71, 40)" /></linearGradient>
    <linearGradient id="ic-0d3fdbe4265b" gradientUnits="userSpaceOnUse" x1="21.00" y1="68.84" x2="21.00" y2="75.13"><stop offset="0.0000" stop-color="rgb(198, 47, 167)" /><stop offset="0.1894" stop-color="rgb(198, 47, 167)" /><stop offset="0.8059" stop-color="rgb(194, 71, 40)" /><stop offset="1.0000" stop-color="rgb(194, 71, 40)" /></linearGradient>
    <linearGradient id="ic-50b77eaafdfa" gradientUnits="userSpaceOnUse" x1="41.01" y1="64.50" x2="47.63" y2="64.50"><stop offset="0.0000" stop-color="rgb(194, 71, 40)" /><stop offset="0.0791" stop-color="rgb(194, 71, 40)" /><stop offset="0.9135" stop-color="rgb(47, 198, 153)" /><stop offset="1.0000" stop-color="rgb(47, 198, 153)" /></linearGradient>
    <linearGradient id="ic-bb43fff0c997" gradientUnits="userSpaceOnUse" x1="35.50" y1="69.13" x2="35.50" y2="75.36"><stop offset="0.0000" stop-color="rgb(194, 71, 40)" /><stop offset="0.2252" stop-color="rgb(194, 71, 40)" /><stop offset="0.7620" stop-color="rgb(47, 198, 153)" /><stop offset="1.0000" stop-color="rgb(47, 198, 153)" /></linearGradient>
    <linearGradient id="ic-670a5280eb39" gradientUnits="userSpaceOnUse" x1="52.37" y1="64.50" x2="58.99" y2="64.50"><stop offset="0.0000" stop-color="rgb(47, 198, 153)" /><stop offset="0.0865" stop-color="rgb(47, 198, 153)" /><stop offset="0.9209" stop-color="rgb(194, 71, 40)" /><stop offset="1.0000" stop-color="rgb(194, 71, 40)" /></linearGradient>
    <linearGradient id="ic-e247f07ae66b" gradientUnits="userSpaceOnUse" x1="68.92" y1="64.50" x2="75.13" y2="64.50"><stop offset="0.0000" stop-color="rgb(194, 71, 40)" /><stop offset="0.2597" stop-color="rgb(194, 71, 40)" /><stop offset="0.7319" stop-color="rgb(198, 47, 167)" /><stop offset="1.0000" stop-color="rgb(198, 47, 167)" /></linearGradient>
    <linearGradient id="ic-b99187e59044" gradientUnits="userSpaceOnUse" x1="64.50" y1="69.13" x2="64.50" y2="75.36"><stop offset="0.0000" stop-color="rgb(194, 71, 40)" /><stop offset="0.2252" stop-color="rgb(194, 71, 40)" /><stop offset="0.7620" stop-color="rgb(47, 198, 153)" /><stop offset="1.0000" stop-color="rgb(47, 198, 153)" /></linearGradient>
    <linearGradient id="ic-0c02fada32e4" gradientUnits="userSpaceOnUse" x1="79.00" y1="68.84" x2="79.00" y2="75.13"><stop offset="0.0000" stop-color="rgb(198, 47, 167)" /><stop offset="0.1894" stop-color="rgb(198, 47, 167)" /><stop offset="0.8059" stop-color="rgb(194, 71, 40)" /><stop offset="1.0000" stop-color="rgb(194, 71, 40)" /></linearGradient>
    <linearGradient id="ic-e46c75a9421e" gradientUnits="userSpaceOnUse" x1="25.07" y1="79.00" x2="31.40" y2="79.00"><stop offset="0.0000" stop-color="rgb(194, 71, 40)" /><stop offset="0.1623" stop-color="rgb(194, 71, 40)" /><stop offset="0.8379" stop-color="rgb(47, 198, 153)" /><stop offset="1.0000" stop-color="rgb(47, 198, 153)" /></linearGradient>
    <linearGradient id="ic-7744756cee86" gradientUnits="userSpaceOnUse" x1="39.24" y1="79.00" x2="45.48" y2="79.00"><stop offset="0.0000" stop-color="rgb(47, 198, 153)" /><stop offset="0.2219" stop-color="rgb(47, 198, 153)" /><stop offset="0.7874" stop-color="rgb(47, 198, 153)" /><stop offset="1.0000" stop-color="rgb(47, 198, 153)" /></linearGradient>
    <linearGradient id="ic-bf00a8aabe18" gradientUnits="userSpaceOnUse" x1="54.52" y1="79.00" x2="60.76" y2="79.00"><stop offset="0.0000" stop-color="rgb(47, 198, 153)" /><stop offset="0.2126" stop-color="rgb(47, 198, 153)" /><stop offset="0.7781" stop-color="rgb(47, 198, 153)" /><stop offset="1.0000" stop-color="rgb(47, 198, 153)" /></linearGradient>
    <linearGradient id="ic-6a90adb16b47" gradientUnits="userSpaceOnUse" x1="68.60" y1="79.00" x2="74.93" y2="79.00"><stop offset="0.0000" stop-color="rgb(47, 198, 153)" /><stop offset="0.1621" stop-color="rgb(47, 198, 153)" /><stop offset="0.8377" stop-color="rgb(194, 71, 40)" /><stop offset="1.0000" stop-color="rgb(194, 71, 40)" /></linearGradient>
  </defs>
  <path d="M25.18 25.54A6.17 6.17 0 0 0 25.18 16.46A4.59 4.59 0 0 0 31.39 16.48A6.11 6.11 0 0 0 31.39 25.52A4.59 4.59 0 0 0 25.18 25.54Z" fill="url(#ic-a0d4b3ca7d9b)" fill-opacity="0.967" />
  <path d="M18.03 26.41A6.17 6.17 0 0 0 23.97 26.41A3.90 3.90 0 0 0 23.31 32.80A3.55 3.55 0 0 0 18.69 32.80A3.90 3.90 0 0 0 18.03 26.41Z" fill="url(#ic-8e517d3c1a9e)" fill-opacity="0.256" />
  <path d="M39.62 25.51A6.11 6.11 0 0 0 39.62 16.49A4.59 4.59 0 0 0 45.83 16.47A6.16 6.16 0 0 0 45.83 25.53A4.59 4.59 0 0 0 39.62 25.51Z" fill="url(#ic-624d00533d33)" fill-opacity="0.964" />
  <path d="M31.37 25.50A6.11 6.11 0 0 0 39.63 25.50A4.35 4.35 0 0 0 39.44 31.71A5.46 5.46 0 0 0 31.56 31.71A4.35 4.35 0 0 0 31.37 25.50Z" fill="url(#ic-593b51b9ebe2)" fill-opacity="0.771" />
  <path d="M54.17 25.53A6.16 6.16 0 0 0 54.17 16.47A4.59 4.59 0 0 0 60.38 16.49A6.11 6.11 0 0 0 60.38 25.51A4.59 4.59 0 0 0 54.17 25.53Z" fill="url(#ic-6dca39dd6ceb)" fill-opacity="0.964" />
  <path d="M45.46 25.16A6.16 6.16 0 0 0 54.54 25.16A4.60 4.60 0 0 0 54.54 31.36A6.14 6.14 0 0 0 45.46 31.36A4.60 4.60 0 0 0 45.46 25.16Z" fill="url(#ic-10915863e970)" fill-opacity="0.971" />
  <path d="M68.61 25.52A6.11 6.11 0 0 0 68.61 16.48A4.59 4.59 0 0 0 74.82 16.46A6.17 6.17 0 0 0 74.82 25.54A4.59 4.59 0 0 0 68.61 25.52Z" fill="url(#ic-5ff6f328ede4)" fill-opacity="0.967" />
  <path d="M60.37 25.50A6.11 6.11 0 0 0 68.63 25.50A4.35 4.35 0 0 0 68.44 31.71A5.46 5.46 0 0 0 60.56 31.71A4.35 4.35 0 0 0 60.37 25.50Z" fill="url(#ic-d403bdc2c251)" fill-opacity="0.771" />
  <path d="M76.03 26.41A6.17 6.17 0 0 0 81.97 26.41A3.90 3.90 0 0 0 81.31 32.80A3.55 3.55 0 0 0 76.69 32.80A3.90 3.90 0 0 0 76.03 26.41Z" fill="url(#ic-4771c97e50b9)" fill-opacity="0.256" />
  <path d="M23.97 37.45A3.55 3.55 0 0 0 23.97 33.55A3.81 3.81 0 0 0 30.58 33.12A5.46 5.46 0 0 0 30.58 37.88A3.81 3.81 0 0 0 23.97 37.45Z" fill="url(#ic-e14faa82ee1c)" fill-opacity="0.060" />
  <path d="M39.27 39.45A5.46 5.46 0 0 0 39.27 31.55A4.35 4.35 0 0 0 45.48 31.34A6.14 6.14 0 0 0 45.48 39.66A4.35 4.35 0 0 0 39.27 39.45Z" fill="url(#ic-4dc50d37ece3)" fill-opacity="0.779" />
  <path d="M54.52 39.66A6.14 6.14 0 0 0 54.52 31.34A4.35 4.35 0 0 0 60.73 31.55A5.46 5.46 0 0 0 60.73 39.45A4.35 4.35 0 0 0 54.52 39.66Z" fill="url(#ic-11e32490f88a)" fill-opacity="0.779" />
  <path d="M46.46 40.52A6.14 6.14 0 0 0 53.54 40.52A4.06 4.06 0 0 0 53.07 46.78A4.45 4.45 0 0 0 46.93 46.78A4.06 4.06 0 0 0 46.46 40.52Z" fill="url(#ic-33ee50785ab2)" fill-opacity="0.497" />
  <path d="M69.42 37.88A5.46 5.46 0 0 0 69.42 33.12A3.81 3.81 0 0 0 76.03 33.55A3.55 3.55 0 0 0 76.03 37.45A3.81 3.81 0 0 0 69.42 37.88Z" fill="url(#ic-02017dfee3f7)" fill-opacity="0.060" />
  <path d="M33.66 52.45A3.06 3.06 0 0 0 37.34 52.45A3.85 3.85 0 0 0 38.03 59.03A6.03 6.03 0 0 0 32.97 59.03A3.85 3.85 0 0 0 33.66 52.45Z" fill="url(#ic-93ecfbacafc7)" fill-opacity="0.082" />
  <path d="M62.66 52.45A3.06 3.06 0 0 0 66.34 52.45A3.85 3.85 0 0 0 67.03 59.03A6.03 6.03 0 0 0 61.97 59.03A3.85 3.85 0 0 0 62.66 52.45Z" fill="url(#ic-08c84336544c)" fill-opacity="0.082" />
  <path d="M24.87 68.46A5.53 5.53 0 0 0 24.87 60.54A4.34 4.34 0 0 0 31.08 60.39A6.03 6.03 0 0 0 31.08 68.61A4.34 4.34 0 0 0 24.87 68.46Z" fill="url(#ic-2e99af6251fa)" fill-opacity="0.768" />
  <path d="M17.57 68.84A5.53 5.53 0 0 0 24.43 68.84A4.07 4.07 0 0 0 24.31 75.13A5.09 5.09 0 0 0 17.69 75.13A4.07 4.07 0 0 0 17.57 68.84Z" fill="url(#ic-0d3fdbe4265b)" fill-opacity="0.507" />
  <path d="M41.01 66.96A6.03 6.03 0 0 0 41.01 62.04A3.85 3.85 0 0 0 47.63 62.76A2.94 2.94 0 0 0 47.63 66.24A3.85 3.85 0 0 0 41.01 66.96Z" fill="url(#ic-50b77eaafdfa)" fill-opacity="0.048" />
  <path d="M31.63 69.13A6.03 6.03 0 0 0 39.37 69.13A4.21 4.21 0 0 0 39.10 75.36A5.12 5.12 0 0 0 31.90 75.36A4.21 4.21 0 0 0 31.63 69.13Z" fill="url(#ic-bb43fff0c997)" fill-opacity="0.654" />
  <path d="M52.37 66.24A2.94 2.94 0 0 0 52.37 62.76A3.85 3.85 0 0 0 58.99 62.04A6.03 6.03 0 0 0 58.99 66.96A3.85 3.85 0 0 0 52.37 66.24Z" fill="url(#ic-670a5280eb39)" fill-opacity="0.048" />
  <path d="M68.92 68.61A6.03 6.03 0 0 0 68.92 60.39A4.34 4.34 0 0 0 75.13 60.54A5.53 5.53 0 0 0 75.13 68.46A4.34 4.34 0 0 0 68.92 68.61Z" fill="url(#ic-e247f07ae66b)" fill-opacity="0.768" />
  <path d="M60.63 69.13A6.03 6.03 0 0 0 68.37 69.13A4.21 4.21 0 0 0 68.10 75.36A5.12 5.12 0 0 0 60.90 75.36A4.21 4.21 0 0 0 60.63 69.13Z" fill="url(#ic-b99187e59044)" fill-opacity="0.654" />
  <path d="M75.57 68.84A5.53 5.53 0 0 0 82.43 68.84A4.07 4.07 0 0 0 82.31 75.13A5.09 5.09 0 0 0 75.69 75.13A4.07 4.07 0 0 0 75.57 68.84Z" fill="url(#ic-0c02fada32e4)" fill-opacity="0.507" />
  <path d="M25.07 82.07A5.09 5.09 0 0 0 25.07 75.93A3.97 3.97 0 0 0 31.40 75.92A5.12 5.12 0 0 0 31.40 82.08A3.97 3.97 0 0 0 25.07 82.07Z" fill="url(#ic-e46c75a9421e)" fill-opacity="0.394" />
  <path d="M39.24 82.50A5.12 5.12 0 0 0 39.24 75.50A4.16 4.16 0 0 0 45.48 75.29A5.84 5.84 0 0 0 45.48 82.71A4.16 4.16 0 0 0 39.24 82.50Z" fill="url(#ic-7744756cee86)" fill-opacity="0.602" />
  <path d="M54.52 82.71A5.84 5.84 0 0 0 54.52 75.29A4.16 4.16 0 0 0 60.76 75.50A5.12 5.12 0 0 0 60.76 82.50A4.16 4.16 0 0 0 54.52 82.71Z" fill="url(#ic-bf00a8aabe18)" fill-opacity="0.602" />
  <path d="M68.60 82.08A5.12 5.12 0 0 0 68.60 75.92A3.97 3.97 0 0 0 74.93 75.93A5.09 5.09 0 0 0 74.93 82.07A3.97 3.97 0 0 0 68.60 82.08Z" fill="url(#ic-6a90adb16b47)" fill-opacity="0.394" />
  <circle cx="21.00" cy="21.00" r="6.17" fill="hsl(12, 66%, 46%)" opacity="0.992" />
  <circle cx="35.50" cy="21.00" r="6.11" fill="hsl(12, 66%, 46%)" opacity="0.975" />
  <circle cx="50.00" cy="21.00" r="6.16" fill="hsl(12, 66%, 46%)" opacity="0.988" />
  <circle cx="64.50" cy="21.00" r="6.11" fill="hsl(12, 66%, 46%)" opacity="0.975" />
  <circle cx="79.00" cy="21.00" r="6.17" fill="hsl(12, 66%, 46%)" opacity="0.992" />
  <circle cx="21.00" cy="35.50" r="3.55" fill="hsl(312, 62%, 48%)" opacity="0.264" />
  <circle cx="35.50" cy="35.50" r="5.46" fill="hsl(162, 62%, 48%)" opacity="0.796" />
  <circle cx="50.00" cy="35.50" r="6.14" fill="hsl(312, 62%, 48%)" opacity="0.983" />
  <circle cx="64.50" cy="35.50" r="5.46" fill="hsl(162, 62%, 48%)" opacity="0.796" />
  <circle cx="79.00" cy="35.50" r="3.55" fill="hsl(312, 62%, 48%)" opacity="0.264" />
  <circle cx="35.50" cy="50.00" r="3.06" fill="hsl(312, 62%, 48%)" opacity="0.128" />
  <circle cx="50.00" cy="50.00" r="4.45" fill="hsl(162, 62%, 48%)" opacity="0.515" />
  <circle cx="64.50" cy="50.00" r="3.06" fill="hsl(312, 62%, 48%)" opacity="0.128" />
  <circle cx="21.00" cy="64.50" r="5.53" fill="hsl(312, 62%, 48%)" opacity="0.814" />
  <circle cx="35.50" cy="64.50" r="6.03" fill="hsl(12, 66%, 46%)" opacity="0.954" />
  <circle cx="50.00" cy="64.50" r="2.94" fill="hsl(162, 62%, 48%)" opacity="0.094" />
  <circle cx="64.50" cy="64.50" r="6.03" fill="hsl(12, 66%, 46%)" opacity="0.954" />
  <circle cx="79.00" cy="64.50" r="5.53" fill="hsl(312, 62%, 48%)" opacity="0.814" />
  <circle cx="21.00" cy="79.00" r="5.09" fill="hsl(12, 66%, 46%)" opacity="0.693" />
  <circle cx="35.50" cy="79.00" r="5.12" fill="hsl(162, 62%, 48%)" opacity="0.701" />
  <circle cx="50.00" cy="79.00" r="5.84" fill="hsl(162, 62%, 48%)" opacity="0.901" />
  <circle cx="64.50" cy="79.00" r="5.12" fill="hsl(162, 62%, 48%)" opacity="0.701" />
  <circle cx="79.00" cy="79.00" r="5.09" fill="hsl(12, 66%, 46%)" opacity="0.693" />
</svg>
